<svg xmlns="http://www.w3.org/2000/svg" viewBox="0 0 50 50"><defs><style>.cls-1{fill:#f15757;}.cls-2{fill:#231f20;}.cls-3{fill:#fff;}.cls-4{fill:#010101;opacity:0.13;}</style></defs><title>Recurso 16</title><g id="Capa_2" data-name="Capa 2"><g id="Layer_1" data-name="Layer 1"><path class="cls-1" d="M50,25a24.11,24.11,0,0,1-.25,3.52c0,.29-.08.59-.14.87A25,25,0,0,1,30.8,49.32l-.76.17A24.62,24.62,0,0,1,25,50,25,25,0,1,1,50,25Z"/><path class="cls-2" d="M37.5,17.42s0,0,0,0V17.3l0,0h0l0,0s0,0,0-.05v0l0,0-.05,0-.06,0h0l-.05,0h-.22l-3.17.71-.67.15L11.2,22.83a.47.47,0,0,0-.16.85l5.41,3.65-.31,7.13a.09.09,0,0,0,0,0,.28.28,0,0,0,0,.09l0,.07a.3.3,0,0,0,0,.08l.05.06,0,0h0a.6.6,0,0,0,.16.08h.11a.45.45,0,0,0,.27-.1h0L21.83,31l1,.7L26.33,34a.5.5,0,0,0,.26.08h.1a.52.52,0,0,0,.3-.21L36,20l1.44-2.23s0,0,0,0a.19.19,0,0,0,0-.07s0,0,0,0v-.06a.17.17,0,0,0,0-.07Zm-25,6.09,19.38-4.39,1.21-.27-1.8.86L17,26.55Zm17.41-2.09L29,22h0l-10,6.3s0,0,0,0l0,0,0,.05,0,.06s0,0,0,0l0,0-1.63,3.61.2-4.68,11.87-5.68h0Zm-11,10.66h0l-1.06.83,1.61-3.56,1.3.88.26.18Zm7.56.87-2.92-2-2.12-1.44-1.31-.88L26,25h0l9.19-5.78.28-.18-.08.12h0l-.09.15Z"/><polygon class="cls-3" points="33.06 18.85 16.97 26.55 12.47 23.5 33.06 18.85"/><path class="cls-3" d="M29.88,21.42,19,28.26s0,0,0,0l0,0,0,.05,0,.06s0,0,0,0l0,0-1.63,3.61.2-4.68Z"/><polygon class="cls-3" points="21.01 30.41 17.84 32.91 19.45 29.36 21.01 30.41"/><polygon class="cls-3" points="35.48 19 26.46 32.95 20.11 28.67 35.48 19"/><path class="cls-4" d="M49.61,29.39A25,25,0,0,1,30.8,49.32L16.34,34.86a.6.6,0,0,0,.16.08h.11a.45.45,0,0,0,.27-.1h0L21.83,31l1,.7L26.33,34a.47.47,0,0,0,.26.08h.1a.45.45,0,0,0,.29-.21L36,20l1.44-2.23a.08.08,0,0,0,0,0,.11.11,0,0,0,0-.07s0,0,0,0v-.06s0-.05,0-.07v0s0,0,0,0,0,0,0,0V17.3s0,0,0,0h0l0,0s0,0,0-.05Z"/></g></g></svg>